<?xml version="1.0" encoding="UTF-8"?>
<!DOCTYPE svg PUBLIC "-//W3C//DTD SVG 1.1//EN" "http://www.w3.org/Graphics/SVG/1.1/DTD/svg11.dtd">
<svg xmlns="http://www.w3.org/2000/svg" version="1.1" width="512px" height="512px" style="shape-rendering:geometricPrecision; text-rendering:geometricPrecision; image-rendering:optimizeQuality; fill-rule:evenodd; clip-rule:evenodd" xmlns:xlink="http://www.w3.org/1999/xlink">
<g><path style="opacity:0.215" fill="#000000" d="M 74.5,24.5 C 84.5964,24.7091 93.9298,27.5424 102.5,33C 118.851,43.8418 134.851,55.1752 150.5,67C 156.501,71.3359 162.834,75.1692 169.5,78.5C 226.493,62.5005 283.493,62.5005 340.5,78.5C 343.028,78.2372 345.361,77.4039 347.5,76C 362.01,65.9117 376.343,55.5784 390.5,45C 399.5,38.8309 408.834,33.1643 418.5,28C 447.184,19.0157 462.684,29.5157 465,59.5C 465.667,82.8333 465.667,106.167 465,129.5C 463.544,146.849 462.21,164.182 461,181.5C 483.389,225.835 491.056,272.502 484,321.5C 482.667,324.167 480.667,326.167 478,327.5C 478.905,334.602 478.239,341.602 476,348.5C 472.942,356.283 469.608,363.95 466,371.5C 463.49,374.665 460.324,376.665 456.5,377.5C 457.111,383.434 456.278,389.1 454,394.5C 450.246,400.342 446.246,406.009 442,411.5C 436.588,416.241 431.921,421.574 428,427.5C 430.67,440.192 432.837,453.025 434.5,466C 435.401,481.084 428.401,486.75 413.5,483C 402.579,477.872 391.913,472.206 381.5,466C 377.497,463.747 373.33,461.914 369,460.5C 293.864,499.422 218.864,499.089 144,459.5C 128.031,467.069 112.531,475.569 97.5,485C 78.3608,490.166 70.8608,482.999 75,463.5C 78.0358,451.746 81.0358,440.08 84,428.5C 75.29,418.792 66.9566,408.792 59,398.5C 57.4138,396.33 56.0804,393.996 55,391.5C 54.8275,387.129 54.3275,382.796 53.5,378.5C 47.2718,375.734 43.1052,371.068 41,364.5C 38.4706,358.579 36.1372,352.579 34,346.5C 32.4801,340.18 32.1468,333.847 33,327.5C 28.2963,324.103 25.6296,319.437 25,313.5C 20.5524,266.071 29.5524,221.404 52,179.5C 50.8079,155.519 49.4746,131.519 48,107.5C 47.0777,88.1286 47.411,68.7953 49,49.5C 51.5275,34.8033 60.0275,26.4699 74.5,24.5 Z M 157.5,223.5 C 170.473,223.903 180.973,229.237 189,239.5C 205.918,266.852 200.085,288.019 171.5,303C 156.582,307.475 144.082,303.641 134,291.5C 121.262,274.342 121.595,257.342 135,240.5C 141.551,233.433 149.051,227.766 157.5,223.5 Z M 345.5,223.5 C 364.019,224.832 376.852,234.166 384,251.5C 390.815,275.698 382.648,292.864 359.5,303C 347.812,306.748 337.146,304.748 327.5,297C 318.346,289.516 312.679,280.016 310.5,268.5C 313.706,246.658 325.372,231.658 345.5,223.5 Z"/></g>
<g><path style="opacity:0.999" fill="#cd06ba" d="M 98.5,44.5 C 98.631,45.2389 98.4643,45.9056 98,46.5C 77.1265,40.7712 64.1265,48.4379 59,69.5C 58.501,65.1794 58.3343,60.8461 58.5,56.5C 59.4621,46.043 64.7955,38.8764 74.5,35C 83.4768,35.6535 91.4768,38.8202 98.5,44.5 Z"/></g>
<g><path style="opacity:1" fill="#c707b5" d="M 455.5,118.5 C 454.669,106.007 454.169,93.34 454,80.5C 451.127,49.4954 435.294,39.4954 406.5,50.5C 405.893,50.3764 405.56,50.0431 405.5,49.5C 413.148,43.6698 421.481,38.8365 430.5,35C 441.999,34.1408 449.499,39.3075 453,50.5C 453.559,54.1864 454.226,57.853 455,61.5C 455.5,80.4971 455.667,99.4971 455.5,118.5 Z"/></g>
<g><path style="opacity:1" fill="#b40aa6" d="M 98.5,44.5 C 119.631,59.2374 140.965,73.7374 162.5,88C 164.433,88.2511 166.266,88.7511 168,89.5C 224.429,72.4804 280.929,72.3138 337.5,89C 340.5,89.6667 343.5,89.6667 346.5,89C 352.157,86.5066 357.49,83.5066 362.5,80C 376.16,68.841 390.493,58.6743 405.5,49.5C 405.56,50.0431 405.893,50.3764 406.5,50.5C 435.294,39.4954 451.127,49.4954 454,80.5C 454.169,93.34 454.669,106.007 455.5,118.5C 454.23,139.219 452.23,159.886 449.5,180.5C 453.096,191.03 457.262,201.364 462,211.5C 464.143,217.427 465.976,223.427 467.5,229.5C 466.883,229.389 466.383,229.056 466,228.5C 465.833,229.667 465.667,230.833 465.5,232C 470.759,249.81 472.926,267.977 472,286.5C 470.33,299.341 464.83,310.174 455.5,319C 456.793,319.49 458.127,319.657 459.5,319.5C 455.733,320.795 451.733,321.461 447.5,321.5C 446.448,321.649 445.448,321.483 444.5,321C 464.017,307.121 471.85,288.288 468,264.5C 464.187,241.916 458.187,219.916 450,198.5C 447.894,191.306 446.561,183.972 446,176.5C 446.642,152.172 447.475,127.839 448.5,103.5C 448.597,93.7852 448.097,84.1186 447,74.5C 443.275,57.2223 432.775,50.389 415.5,54C 411.271,55.1146 407.271,56.7813 403.5,59C 389.369,69.123 374.702,78.4563 359.5,87C 351.325,90.3354 342.825,92.1688 334,92.5C 319.114,90.7135 304.281,88.5469 289.5,86C 269.534,83.3174 249.534,82.984 229.5,85C 215.121,86.6742 200.788,88.6742 186.5,91C 170.002,93.0337 154.669,89.7004 140.5,81C 128.436,72.6062 116.103,64.6062 103.5,57C 80.8766,48.8923 68.0432,56.7257 65,80.5C 64.7469,107.36 65.5802,134.193 67.5,161C 67.4816,168.535 66.9816,176.035 66,183.5C 61.5261,200.114 56.1928,216.448 50,232.5C 43.7974,251.112 41.7974,270.112 44,289.5C 47.687,302.701 55.187,313.201 66.5,321C 65.9056,321.464 65.2389,321.631 64.5,321.5C 59.9242,321.562 55.5909,320.895 51.5,319.5C 52.8734,319.657 54.2068,319.49 55.5,319C 44.0676,307.215 38.4009,293.048 38.5,276.5C 39.5562,256.552 43.5562,237.219 50.5,218.5C 50.0057,216.974 49.339,215.641 48.5,214.5C 52.4579,204.584 56.9579,194.917 62,185.5C 62.5788,183.351 63.0788,181.185 63.5,179C 58.7345,138.132 57.0678,97.2984 58.5,56.5C 58.3343,60.8461 58.501,65.1794 59,69.5C 64.1265,48.4379 77.1265,40.7712 98,46.5C 98.4643,45.9056 98.631,45.2389 98.5,44.5 Z M 157.5,223.5 C 149.051,227.766 141.551,233.433 135,240.5C 121.595,257.342 121.262,274.342 134,291.5C 144.082,303.641 156.582,307.475 171.5,303C 200.085,288.019 205.918,266.852 189,239.5C 180.973,229.237 170.473,223.903 157.5,223.5 Z M 345.5,223.5 C 325.372,231.658 313.706,246.658 310.5,268.5C 312.679,280.016 318.346,289.516 327.5,297C 337.146,304.748 347.812,306.748 359.5,303C 382.648,292.864 390.815,275.698 384,251.5C 376.852,234.166 364.019,224.832 345.5,223.5 Z"/></g>
<g><path style="opacity:1" fill="#a80c9c" d="M 447.5,321.5 C 441.426,323.322 435.093,324.322 428.5,324.5C 427.448,324.649 426.448,324.483 425.5,324C 444.241,318.259 456.741,306.093 463,287.5C 465.082,274.72 464.415,262.053 461,249.5C 454.97,228.754 448.97,208.087 443,187.5C 443.333,151.5 443.667,115.5 444,79.5C 438.257,59.013 425.59,53.3463 406,62.5C 392.41,71.7655 378.576,80.5989 364.5,89C 354.979,94.0885 344.813,96.5885 334,96.5C 318.169,94.5103 302.335,92.3436 286.5,90C 254.222,86.8507 222.222,88.5173 190.5,95C 176.826,96.6306 163.493,95.2972 150.5,91C 145.548,88.3703 141.215,85.0369 137.5,81C 133.615,80.2606 129.948,78.9272 126.5,77C 118.47,70.6506 109.803,65.3172 100.5,61C 79.8823,55.9376 69.3823,64.1042 69,85.5C 70.1988,116.818 70.8655,148.151 71,179.5C 70.1768,185.617 68.8434,191.617 67,197.5C 55.7457,222.341 48.9124,248.341 46.5,275.5C 46.8828,283.638 48.8828,291.305 52.5,298.5C 56.9814,305.142 61.9814,311.309 67.5,317C 70.8333,319 74.1667,321 77.5,323C 76.552,323.483 75.552,323.649 74.5,323.5C 70.9219,323.451 67.5885,322.785 64.5,321.5C 65.2389,321.631 65.9056,321.464 66.5,321C 55.187,313.201 47.687,302.701 44,289.5C 41.7974,270.112 43.7974,251.112 50,232.5C 56.1928,216.448 61.5261,200.114 66,183.5C 66.9816,176.035 67.4816,168.535 67.5,161C 65.5802,134.193 64.7469,107.36 65,80.5C 68.0432,56.7257 80.8766,48.8923 103.5,57C 116.103,64.6062 128.436,72.6062 140.5,81C 154.669,89.7004 170.002,93.0337 186.5,91C 200.788,88.6742 215.121,86.6742 229.5,85C 249.534,82.984 269.534,83.3174 289.5,86C 304.281,88.5469 319.114,90.7135 334,92.5C 342.825,92.1688 351.325,90.3354 359.5,87C 374.702,78.4563 389.369,69.123 403.5,59C 407.271,56.7813 411.271,55.1146 415.5,54C 432.775,50.389 443.275,57.2223 447,74.5C 448.097,84.1186 448.597,93.7852 448.5,103.5C 447.475,127.839 446.642,152.172 446,176.5C 446.561,183.972 447.894,191.306 450,198.5C 458.187,219.916 464.187,241.916 468,264.5C 471.85,288.288 464.017,307.121 444.5,321C 445.448,321.483 446.448,321.649 447.5,321.5 Z M 157.5,223.5 C 149.051,227.766 141.551,233.433 135,240.5C 121.595,257.342 121.262,274.342 134,291.5C 144.082,303.641 156.582,307.475 171.5,303C 200.085,288.019 205.918,266.852 189,239.5C 180.973,229.237 170.473,223.903 157.5,223.5 Z M 345.5,223.5 C 325.372,231.658 313.706,246.658 310.5,268.5C 312.679,280.016 318.346,289.516 327.5,297C 337.146,304.748 347.812,306.748 359.5,303C 382.648,292.864 390.815,275.698 384,251.5C 376.852,234.166 364.019,224.832 345.5,223.5 Z"/></g>
<g><path style="opacity:1" fill="#8c0f85" d="M 388.5,350.5 C 387.71,351.401 386.71,352.068 385.5,352.5C 384.25,352.577 383.417,353.244 383,354.5C 382.667,349.5 382.333,344.5 382,339.5C 380.833,337 379,335.167 376.5,334C 362.803,333.082 349.136,331.748 335.5,330C 299.446,320.426 282.613,296.926 285,259.5C 291.457,222.706 313.124,202.04 350,197.5C 378.152,200.086 397.819,214.419 409,240.5C 412.109,248.546 413.609,256.88 413.5,265.5C 412.459,277.83 411.459,290.164 410.5,302.5C 410.537,308.779 413.703,311.446 420,310.5C 441.5,307.667 453.667,295.5 456.5,274C 453.549,249.03 447.382,224.863 438,201.5C 436.154,194.935 434.82,188.269 434,181.5C 434.75,150.17 435.416,118.837 436,87.5C 434.133,71.8257 425.633,65.9923 410.5,70C 398.826,76.835 387.493,84.1684 376.5,92C 360.54,101.99 343.207,105.99 324.5,104C 311.518,101.892 298.518,99.8919 285.5,98C 265.167,96 244.833,96 224.5,98C 208.381,100.548 192.214,102.714 176,104.5C 158.614,103.372 142.781,97.8718 128.5,88C 119.609,80.7804 109.942,74.7804 99.5,70C 87.936,67.5307 80.7694,72.0307 78,83.5C 77.5989,88.0115 77.0989,92.5115 76.5,97C 77.6257,119.011 78.959,141.011 80.5,163C 80.237,175.078 78.4037,186.911 75,198.5C 67.39,217.33 61.39,236.664 57,256.5C 50.0637,281.791 58.5637,299.625 82.5,310C 86.652,310.926 90.8186,311.76 95,312.5C 97.3161,312.066 99.3161,311.066 101,309.5C 100.908,295.471 100.075,281.471 98.5,267.5C 99.7639,239.425 112.431,218.258 136.5,204C 171.108,191.425 197.941,200.925 217,232.5C 229.63,258.465 227.963,283.465 212,307.5C 192.256,327.859 168.256,335.859 140,331.5C 136.825,331.946 133.658,332.446 130.5,333C 127.337,334.48 125.504,336.98 125,340.5C 124.501,344.821 124.334,349.154 124.5,353.5C 123.5,353.5 122.5,353.5 121.5,353.5C 120.01,351.72 118.01,351.054 115.5,351.5C 115.5,350.833 115.833,350.5 116.5,350.5C 117.833,350.5 119.167,350.5 120.5,350.5C 120.03,346.019 119.697,341.519 119.5,337C 119.558,333.724 120.224,330.724 121.5,328C 132.851,327.835 144.184,328.335 155.5,329.5C 179.272,329.363 198.438,320.03 213,301.5C 227.562,275.555 226.562,250.221 210,225.5C 186.139,197.425 158.639,193.091 127.5,212.5C 108.705,228.035 99.8719,248.035 101,272.5C 102.117,281.201 103.45,289.867 105,298.5C 108.164,305.327 110.498,312.327 112,319.5C 97.1993,319.294 83.3659,315.294 70.5,307.5C 61.2196,300.722 55.3863,291.722 53,280.5C 52.7147,265.874 54.7147,251.541 59,237.5C 65.4751,220.075 71.1417,202.409 76,184.5C 76.9936,176.702 77.4936,168.868 77.5,161C 75.8254,135.853 74.9921,110.686 75,85.5C 77.2601,69.5586 86.0934,63.7252 101.5,68C 103.717,69.2754 106.051,70.2754 108.5,71C 121.46,81.283 135.46,89.9496 150.5,97C 162.501,101.198 174.834,102.532 187.5,101C 209.806,96.7528 232.306,94.2528 255,93.5C 266.191,94.0224 277.358,94.8557 288.5,96C 303.734,98.8803 319.068,101.047 334.5,102.5C 349.269,101.854 362.935,97.6875 375.5,90C 385.66,82.7525 395.994,75.7525 406.5,69C 423.017,61.1611 433.517,65.9945 438,83.5C 438.309,114.865 437.642,146.198 436,177.5C 436.375,182.21 437.042,186.877 438,191.5C 442.596,207.954 447.596,224.287 453,240.5C 468.509,285.839 452.675,311.839 405.5,318.5C 402.002,317.814 400.835,315.814 402,312.5C 410.787,290.355 412.787,267.688 408,244.5C 399.8,221.632 383.967,207.132 360.5,201C 328.974,198.225 306.474,211.058 293,239.5C 281.778,268.056 286.944,293.222 308.5,315C 328.737,328.46 350.904,332.96 375,328.5C 378.235,328.582 381.402,329.082 384.5,330C 386.487,331.319 387.654,333.152 388,335.5C 388.607,340.47 388.107,345.303 386.5,350C 387.094,350.464 387.761,350.631 388.5,350.5 Z M 157.5,223.5 C 149.051,227.766 141.551,233.433 135,240.5C 121.595,257.342 121.262,274.342 134,291.5C 144.082,303.641 156.582,307.475 171.5,303C 200.085,288.019 205.918,266.852 189,239.5C 180.973,229.237 170.473,223.903 157.5,223.5 Z M 345.5,223.5 C 325.372,231.658 313.706,246.658 310.5,268.5C 312.679,280.016 318.346,289.516 327.5,297C 337.146,304.748 347.812,306.748 359.5,303C 382.648,292.864 390.815,275.698 384,251.5C 376.852,234.166 364.019,224.832 345.5,223.5 Z"/></g>
<g><path style="opacity:1" fill="#871080" d="M 385.5,352.5 C 385.187,355.837 386.52,358.171 389.5,359.5C 388.427,360.251 388.26,361.251 389,362.5C 394.292,369.46 399.958,376.127 406,382.5C 413.493,401.03 409.993,417.197 395.5,431C 391.928,433.637 387.928,435.303 383.5,436C 370.996,436.521 358.662,438.188 346.5,441C 323.515,451.328 299.515,457.995 274.5,461C 254.957,462.524 235.624,461.19 216.5,457C 198.216,451.794 180.216,445.794 162.5,439C 150.583,437.07 138.583,435.736 126.5,435C 115.453,431.621 107.953,424.454 104,413.5C 99.4386,403.148 99.4386,392.815 104,382.5C 108.091,376.653 112.424,370.987 117,365.5C 117.638,364.391 118.138,363.225 118.5,362C 118.164,360.97 117.497,360.47 116.5,360.5C 117.848,359.399 119.348,358.399 121,357.5C 121.49,356.207 121.657,354.873 121.5,353.5C 122.5,353.5 123.5,353.5 124.5,353.5C 124.334,349.154 124.501,344.821 125,340.5C 125.504,336.98 127.337,334.48 130.5,333C 133.658,332.446 136.825,331.946 140,331.5C 168.256,335.859 192.256,327.859 212,307.5C 227.963,283.465 229.63,258.465 217,232.5C 197.941,200.925 171.108,191.425 136.5,204C 112.431,218.258 99.7639,239.425 98.5,267.5C 100.075,281.471 100.908,295.471 101,309.5C 99.3161,311.066 97.3161,312.066 95,312.5C 90.8186,311.76 86.652,310.926 82.5,310C 58.5637,299.625 50.0637,281.791 57,256.5C 61.39,236.664 67.39,217.33 75,198.5C 78.4037,186.911 80.237,175.078 80.5,163C 78.959,141.011 77.6257,119.011 76.5,97C 77.0989,92.5115 77.5989,88.0115 78,83.5C 80.7694,72.0307 87.936,67.5307 99.5,70C 109.942,74.7804 119.609,80.7804 128.5,88C 142.781,97.8718 158.614,103.372 176,104.5C 192.214,102.714 208.381,100.548 224.5,98C 244.833,96 265.167,96 285.5,98C 298.518,99.8919 311.518,101.892 324.5,104C 343.207,105.99 360.54,101.99 376.5,92C 387.493,84.1684 398.826,76.835 410.5,70C 425.633,65.9923 434.133,71.8257 436,87.5C 435.416,118.837 434.75,150.17 434,181.5C 434.82,188.269 436.154,194.935 438,201.5C 447.382,224.863 453.549,249.03 456.5,274C 453.667,295.5 441.5,307.667 420,310.5C 413.703,311.446 410.537,308.779 410.5,302.5C 411.459,290.164 412.459,277.83 413.5,265.5C 413.609,256.88 412.109,248.546 409,240.5C 397.819,214.419 378.152,200.086 350,197.5C 313.124,202.04 291.457,222.706 285,259.5C 282.613,296.926 299.446,320.426 335.5,330C 349.136,331.748 362.803,333.082 376.5,334C 379,335.167 380.833,337 382,339.5C 382.333,344.5 382.667,349.5 383,354.5C 383.417,353.244 384.25,352.577 385.5,352.5 Z M 157.5,223.5 C 149.051,227.766 141.551,233.433 135,240.5C 121.595,257.342 121.262,274.342 134,291.5C 144.082,303.641 156.582,307.475 171.5,303C 200.085,288.019 205.918,266.852 189,239.5C 180.973,229.237 170.473,223.903 157.5,223.5 Z M 345.5,223.5 C 325.372,231.658 313.706,246.658 310.5,268.5C 312.679,280.016 318.346,289.516 327.5,297C 337.146,304.748 347.812,306.748 359.5,303C 382.648,292.864 390.815,275.698 384,251.5C 376.852,234.166 364.019,224.832 345.5,223.5 Z"/></g>
<g><path style="opacity:1" fill="#7f117a" d="M 413.5,71.5 C 424.423,70.6277 430.923,75.6277 433,86.5C 433.236,116.863 432.569,147.196 431,177.5C 433.749,196.75 438.749,215.416 446,233.5C 451.315,249.074 453.649,265.074 453,281.5C 447.648,296.557 437.148,304.057 421.5,304C 420.069,303.535 418.903,302.701 418,301.5C 415.581,297.156 414.414,292.49 414.5,287.5C 419.657,263.118 415.157,240.785 401,220.5C 377.324,193.956 349.491,188.456 317.5,204C 291.318,221.873 279.818,246.706 283,278.5C 285.202,287.773 288.202,296.773 292,305.5C 293.979,309.956 296.813,313.79 300.5,317C 321.251,330.613 344.251,337.279 369.5,337C 372.539,338.031 375.039,339.865 377,342.5C 377.948,351.593 380.282,360.259 384,368.5C 386.667,372.5 390,375.833 394,378.5C 409.214,396.482 407.714,412.982 389.5,428C 387.913,428.862 386.246,429.529 384.5,430C 371.74,431.435 359.073,433.435 346.5,436C 326.29,444.735 305.29,451.068 283.5,455C 260.993,457.69 238.659,456.69 216.5,452C 199.449,447.243 182.783,441.577 166.5,435C 162.203,433.842 157.869,432.842 153.5,432C 142.47,432.394 131.803,430.728 121.5,427C 105.752,414.844 102.586,400.011 112,382.5C 116.333,377.167 120.667,371.833 125,366.5C 127.443,357.486 129.776,348.486 132,339.5C 134.304,337.932 136.804,336.765 139.5,336C 164.572,337.736 187.238,331.403 207.5,317C 216.93,307.31 223.097,295.81 226,282.5C 231.914,250.227 221.747,224.394 195.5,205C 159.733,187.698 130.233,195.198 107,227.5C 96.389,246.438 93.2223,266.605 97.5,288C 97.5127,305.163 89.846,309.83 74.5,302C 61.7458,293.927 56.2458,282.427 58,267.5C 60.3865,247.614 65.7198,228.614 74,210.5C 79.9914,194.71 82.8247,178.377 82.5,161.5C 81.4826,141.335 80.4826,121.169 79.5,101C 78.6871,92.5598 80.3537,84.7265 84.5,77.5C 89.5881,72.3147 95.5881,71.148 102.5,74C 116.165,83.1679 130.165,91.8345 144.5,100C 158.271,106.005 172.604,108.005 187.5,106C 209.806,101.744 232.306,99.2437 255,98.5C 266.53,98.9353 278.03,99.7687 289.5,101C 304.57,103.873 319.736,106.04 335,107.5C 347.068,106.941 358.568,104.108 369.5,99C 382.509,91.1638 395.176,82.8305 407.5,74C 409.723,73.4338 411.723,72.6005 413.5,71.5 Z M 157.5,223.5 C 149.051,227.766 141.551,233.433 135,240.5C 121.595,257.342 121.262,274.342 134,291.5C 144.082,303.641 156.582,307.475 171.5,303C 200.085,288.019 205.918,266.852 189,239.5C 180.973,229.237 170.473,223.903 157.5,223.5 Z"/></g>
<g><path style="opacity:1" fill="#7a1275" d="M 411.5,75.5 C 421.953,73.7922 428.12,78.1256 430,88.5C 429.954,118.52 429.287,148.52 428,178.5C 431.083,198.753 436.416,218.42 444,237.5C 448.341,251.197 450.341,265.197 450,279.5C 446.932,292.583 438.765,298.75 425.5,298C 421.835,296.332 419.668,293.499 419,289.5C 423.346,263.521 418.013,239.854 403,218.5C 371.723,185.653 338.223,183.153 302.5,211C 287.91,226.75 279.91,245.416 278.5,267C 279.989,280.122 282.822,292.955 287,305.5C 288.929,312.754 293.096,318.254 299.5,322C 310.387,327.778 321.72,332.444 333.5,336C 343.878,337.422 354.211,339.089 364.5,341C 367.102,341.883 369.269,343.383 371,345.5C 373.665,352.822 376.332,360.155 379,367.5C 383.957,374.126 389.291,380.46 395,386.5C 405.57,404.459 401.404,417.959 382.5,427C 370.058,428.343 357.725,430.343 345.5,433C 325.231,441.756 304.231,448.09 282.5,452C 255.301,455.691 228.634,453.358 202.5,445C 189.598,440.048 176.598,435.382 163.5,431C 153.259,429.053 142.925,427.72 132.5,427C 122.703,425.205 115.87,419.705 112,410.5C 109.076,401.137 110.41,392.47 116,384.5C 119.667,379.833 123.333,375.167 127,370.5C 130.765,362.44 133.765,354.106 136,345.5C 137.543,343.622 139.376,342.122 141.5,341C 152.787,339.071 164.12,337.404 175.5,336C 188.773,331.863 201.107,325.863 212.5,318C 219.813,310.21 224.646,301.043 227,290.5C 237.323,251.778 225.823,221.612 192.5,200C 156.595,185.189 127.429,193.689 105,225.5C 93.868,245.068 89.868,266.068 93,288.5C 91.4818,296.695 86.6485,300.195 78.5,299C 66.9632,294.432 60.9632,285.932 60.5,273.5C 61.5889,261.634 63.7555,249.967 67,238.5C 72.201,223.897 77.201,209.23 82,194.5C 85.3081,178.324 86.3081,161.991 85,145.5C 84.0967,131.004 83.2634,116.504 82.5,102C 82.1541,94.4013 83.6541,87.2346 87,80.5C 91.9373,76.2776 97.4373,75.4442 103.5,78C 114.003,84.4174 124.337,91.0841 134.5,98C 151.211,107.942 169.211,111.609 188.5,109C 210.642,104.781 232.975,102.281 255.5,101.5C 266.521,102.08 277.521,102.913 288.5,104C 303.89,106.982 319.39,109.149 335,110.5C 346.36,110.285 357.193,107.785 367.5,103C 382.432,94.046 397.099,84.8793 411.5,75.5 Z"/></g>
<g><path style="opacity:1" fill="#9a0d90" d="M 428.5,324.5 C 424.008,325.838 419.341,327.005 414.5,328C 412.963,329.11 412.297,330.61 412.5,332.5C 410.856,332.286 409.356,332.62 408,333.5C 404.293,339.581 401.126,345.914 398.5,352.5C 396.784,352.371 395.117,352.038 393.5,351.5C 392.737,350.732 391.737,350.232 390.5,350C 392.315,342.899 394.815,336.066 398,329.5C 401.081,326.707 404.581,324.54 408.5,323C 427.845,320.087 443.345,310.92 455,295.5C 460.124,286.113 461.791,276.113 460,265.5C 459.258,259.789 458.258,254.122 457,248.5C 452.404,232.046 447.404,215.713 442,199.5C 440.02,192.286 438.687,184.953 438,177.5C 439.686,145.866 440.353,114.199 440,82.5C 436.573,65.7239 426.74,59.8906 410.5,65C 401.508,69.6414 393.174,74.9747 385.5,81C 375.503,88.4991 364.503,94.1657 352.5,98C 346.558,99.2536 340.558,100.087 334.5,100.5C 319.094,98.8768 303.76,96.7102 288.5,94C 265.837,90.7403 243.17,90.7403 220.5,94C 209.516,95.7752 198.516,97.4418 187.5,99C 169.09,101.453 152.09,97.7859 136.5,88C 125.507,80.1684 114.174,72.835 102.5,66C 85.5048,60.5863 75.6715,66.7529 73,84.5C 73.6668,115.168 74.3334,145.834 75,176.5C 74.2577,182.211 73.2577,187.878 72,193.5C 65.2009,211.898 59.2009,230.564 54,249.5C 44.2439,277.913 52.0772,299.746 77.5,315C 86.6606,318.276 95.6606,321.942 104.5,326C 110.119,330.052 113.619,335.552 115,342.5C 115.822,345.117 116.322,347.784 116.5,350.5C 115.833,350.5 115.5,350.833 115.5,351.5C 113.5,351.833 111.5,352.167 109.5,352.5C 107.315,345.129 103.815,338.463 99,332.5C 98.6174,333.056 98.1174,333.389 97.5,333.5C 98.0352,330.762 97.0352,328.928 94.5,328C 87.7987,326.03 81.132,324.53 74.5,323.5C 75.552,323.649 76.552,323.483 77.5,323C 74.1667,321 70.8333,319 67.5,317C 61.9814,311.309 56.9814,305.142 52.5,298.5C 48.8828,291.305 46.8828,283.638 46.5,275.5C 48.9124,248.341 55.7457,222.341 67,197.5C 68.8434,191.617 70.1768,185.617 71,179.5C 70.8655,148.151 70.1988,116.818 69,85.5C 69.3823,64.1042 79.8823,55.9376 100.5,61C 109.803,65.3172 118.47,70.6506 126.5,77C 129.948,78.9272 133.615,80.2606 137.5,81C 141.215,85.0369 145.548,88.3703 150.5,91C 163.493,95.2972 176.826,96.6306 190.5,95C 222.222,88.5173 254.222,86.8507 286.5,90C 302.335,92.3436 318.169,94.5103 334,96.5C 344.813,96.5885 354.979,94.0885 364.5,89C 378.576,80.5989 392.41,71.7655 406,62.5C 425.59,53.3463 438.257,59.013 444,79.5C 443.667,115.5 443.333,151.5 443,187.5C 448.97,208.087 454.97,228.754 461,249.5C 464.415,262.053 465.082,274.72 463,287.5C 456.741,306.093 444.241,318.259 425.5,324C 426.448,324.483 427.448,324.649 428.5,324.5 Z M 157.5,223.5 C 149.051,227.766 141.551,233.433 135,240.5C 121.595,257.342 121.262,274.342 134,291.5C 144.082,303.641 156.582,307.475 171.5,303C 200.085,288.019 205.918,266.852 189,239.5C 180.973,229.237 170.473,223.903 157.5,223.5 Z M 345.5,223.5 C 325.372,231.658 313.706,246.658 310.5,268.5C 312.679,280.016 318.346,289.516 327.5,297C 337.146,304.748 347.812,306.748 359.5,303C 382.648,292.864 390.815,275.698 384,251.5C 376.852,234.166 364.019,224.832 345.5,223.5 Z"/></g>
<g><path style="opacity:1" fill="#930e8b" d="M 393.5,351.5 C 391.708,351.634 390.042,351.301 388.5,350.5C 387.761,350.631 387.094,350.464 386.5,350C 388.107,345.303 388.607,340.47 388,335.5C 387.654,333.152 386.487,331.319 384.5,330C 381.402,329.082 378.235,328.582 375,328.5C 350.904,332.96 328.737,328.46 308.5,315C 286.944,293.222 281.778,268.056 293,239.5C 306.474,211.058 328.974,198.225 360.5,201C 383.967,207.132 399.8,221.632 408,244.5C 412.787,267.688 410.787,290.355 402,312.5C 400.835,315.814 402.002,317.814 405.5,318.5C 452.675,311.839 468.509,285.839 453,240.5C 447.596,224.287 442.596,207.954 438,191.5C 437.042,186.877 436.375,182.21 436,177.5C 437.642,146.198 438.309,114.865 438,83.5C 433.517,65.9945 423.017,61.1611 406.5,69C 395.994,75.7525 385.66,82.7525 375.5,90C 362.935,97.6875 349.269,101.854 334.5,102.5C 319.068,101.047 303.734,98.8803 288.5,96C 277.358,94.8557 266.191,94.0224 255,93.5C 232.306,94.2528 209.806,96.7528 187.5,101C 174.834,102.532 162.501,101.198 150.5,97C 135.46,89.9496 121.46,81.283 108.5,71C 106.051,70.2754 103.717,69.2754 101.5,68C 86.0934,63.7252 77.2601,69.5586 75,85.5C 74.9921,110.686 75.8254,135.853 77.5,161C 77.4936,168.868 76.9936,176.702 76,184.5C 71.1417,202.409 65.4751,220.075 59,237.5C 54.7147,251.541 52.7147,265.874 53,280.5C 55.3863,291.722 61.2196,300.722 70.5,307.5C 83.3659,315.294 97.1993,319.294 112,319.5C 110.498,312.327 108.164,305.327 105,298.5C 103.45,289.867 102.117,281.201 101,272.5C 99.8719,248.035 108.705,228.035 127.5,212.5C 158.639,193.091 186.139,197.425 210,225.5C 226.562,250.221 227.562,275.555 213,301.5C 198.438,320.03 179.272,329.363 155.5,329.5C 144.184,328.335 132.851,327.835 121.5,328C 120.224,330.724 119.558,333.724 119.5,337C 119.697,341.519 120.03,346.019 120.5,350.5C 119.167,350.5 117.833,350.5 116.5,350.5C 116.322,347.784 115.822,345.117 115,342.5C 113.619,335.552 110.119,330.052 104.5,326C 95.6606,321.942 86.6606,318.276 77.5,315C 52.0772,299.746 44.2439,277.913 54,249.5C 59.2009,230.564 65.2009,211.898 72,193.5C 73.2577,187.878 74.2577,182.211 75,176.5C 74.3334,145.834 73.6668,115.168 73,84.5C 75.6715,66.7529 85.5048,60.5863 102.5,66C 114.174,72.835 125.507,80.1684 136.5,88C 152.09,97.7859 169.09,101.453 187.5,99C 198.516,97.4418 209.516,95.7752 220.5,94C 243.17,90.7403 265.837,90.7403 288.5,94C 303.76,96.7102 319.094,98.8768 334.5,100.5C 340.558,100.087 346.558,99.2536 352.5,98C 364.503,94.1657 375.503,88.4991 385.5,81C 393.174,74.9747 401.508,69.6414 410.5,65C 426.74,59.8906 436.573,65.7239 440,82.5C 440.353,114.199 439.686,145.866 438,177.5C 438.687,184.953 440.02,192.286 442,199.5C 447.404,215.713 452.404,232.046 457,248.5C 458.258,254.122 459.258,259.789 460,265.5C 461.791,276.113 460.124,286.113 455,295.5C 443.345,310.92 427.845,320.087 408.5,323C 404.581,324.54 401.081,326.707 398,329.5C 394.815,336.066 392.315,342.899 390.5,350C 391.737,350.232 392.737,350.732 393.5,351.5 Z M 157.5,223.5 C 149.051,227.766 141.551,233.433 135,240.5C 121.595,257.342 121.262,274.342 134,291.5C 144.082,303.641 156.582,307.475 171.5,303C 200.085,288.019 205.918,266.852 189,239.5C 180.973,229.237 170.473,223.903 157.5,223.5 Z M 345.5,223.5 C 325.372,231.658 313.706,246.658 310.5,268.5C 312.679,280.016 318.346,289.516 327.5,297C 337.146,304.748 347.812,306.748 359.5,303C 382.648,292.864 390.815,275.698 384,251.5C 376.852,234.166 364.019,224.832 345.5,223.5 Z"/></g>
<g><path style="opacity:1" fill="#73136f" d="M 410.5,79.5 C 420.53,78.0262 426.03,82.3595 427,92.5C 426.422,121.837 425.755,151.17 425,180.5C 425.818,187.926 427.152,195.259 429,202.5C 434.94,219.987 440.273,237.653 445,255.5C 446.105,261.296 446.938,267.13 447.5,273C 447.339,286.496 440.672,293.162 427.5,293C 423.673,289.367 421.673,284.867 421.5,279.5C 426.111,241.555 411.778,213.388 378.5,195C 338.8,181.568 307.967,192.734 286,228.5C 278.065,242.844 274.731,258.178 276,274.5C 277.824,283.126 279.324,291.792 280.5,300.5C 281.028,304.261 280.028,307.427 277.5,310C 261.943,310.85 246.443,312.35 231,314.5C 228.446,314.42 226.946,313.086 226.5,310.5C 228.217,300.419 230.383,290.419 233,280.5C 237.496,247.668 226.663,221.168 200.5,201C 167.116,181.777 136.95,185.944 110,213.5C 101.67,223.154 95.6704,234.154 92,246.5C 90.1859,260.806 88.8525,275.139 88,289.5C 83.1766,295.623 77.6766,296.123 71.5,291C 66.5391,286.243 63.8724,280.41 63.5,273.5C 64.7832,260.918 67.2832,248.584 71,236.5C 78.6916,218.093 84.3583,199.093 88,179.5C 87.7082,149.832 87.3749,120.166 87,90.5C 89.7259,81.3874 95.5592,78.5541 104.5,82C 117.64,91.1273 131.306,99.4606 145.5,107C 155.124,110.892 165.124,113.058 175.5,113.5C 194.845,111.109 214.178,108.609 233.5,106C 248.167,105.333 262.833,105.333 277.5,106C 296.61,108.991 315.776,111.491 335,113.5C 353.253,113.194 369.753,107.694 384.5,97C 393.092,90.8818 401.759,85.0485 410.5,79.5 Z"/></g>
<g><path style="opacity:1" fill="#6d146b" d="M 410.5,83.5 C 419.936,83.7783 424.436,88.7783 424,98.5C 422.574,127.142 421.907,155.808 422,184.5C 425.29,205.037 430.623,225.037 438,244.5C 442.007,255.859 443.673,267.525 443,279.5C 440.54,286.968 435.707,289.468 428.5,287C 426.39,283.835 425.39,280.335 425.5,276.5C 429.299,235.806 412.632,206.973 375.5,190C 329.771,178.614 297.271,194.448 278,237.5C 272.956,250.399 271.29,263.732 273,277.5C 275.144,285.044 275.811,292.711 275,300.5C 274.215,302.286 273.049,303.786 271.5,305C 261.308,307.429 250.975,308.096 240.5,307C 235.48,305.646 233.146,302.313 233.5,297C 244.803,257.589 234.803,224.922 203.5,199C 172.049,179.36 142.049,181.36 113.5,205C 91.2679,225.689 82.1012,251.189 86,281.5C 85.0466,287.787 81.5466,289.954 75.5,288C 69.548,284.598 66.8813,279.431 67.5,272.5C 67.8992,266.771 68.7325,261.105 70,255.5C 74.5303,238.576 79.8636,221.909 86,205.5C 90.0071,191.79 92.1737,177.79 92.5,163.5C 90.6289,140.862 89.7956,118.195 90,95.5C 91.2399,86.6387 96.0732,83.472 104.5,86C 116.33,94.4181 128.663,102.085 141.5,109C 154.893,114.961 168.893,117.294 183.5,116C 197.531,114.217 211.531,112.217 225.5,110C 245.167,108 264.833,108 284.5,110C 301.212,113.202 318.045,115.369 335,116.5C 351.069,116.774 365.903,112.607 379.5,104C 389.759,96.8805 400.092,90.0472 410.5,83.5 Z"/></g>
<g><path style="opacity:1" fill="#661566" d="M 410.5,89.5 C 415.522,90.357 418.355,93.357 419,98.5C 419.667,108.167 419.667,117.833 419,127.5C 417.906,140.985 417.073,154.485 416.5,168C 417.583,181.824 418.083,195.657 418,209.5C 416.132,210.672 414.298,210.505 412.5,209C 403.782,201.948 394.782,195.281 385.5,189C 337.371,171.151 300.871,184.651 276,229.5C 267.282,250.221 265.282,271.555 270,293.5C 268.923,296.913 266.756,299.413 263.5,301C 258.572,302.418 253.572,302.751 248.5,302C 242.321,300.654 239.321,296.821 239.5,290.5C 248.56,248.489 235.56,215.322 200.5,191C 171.462,175.969 143.462,177.636 116.5,196C 109.607,201.897 102.441,207.397 95,212.5C 94.228,212.355 93.5613,212.022 93,211.5C 94.6765,195.401 95.8432,179.234 96.5,163C 94.9703,141.521 94.4703,120.021 95,98.5C 96.8656,91.6531 101.032,89.8197 107.5,93C 117.323,100.414 127.656,107.081 138.5,113C 154.796,120.099 171.796,122.432 189.5,120C 222.253,112.927 255.253,111.261 288.5,115C 304.184,118.288 320.017,120.455 336,121.5C 354.08,121.362 370.58,116.195 385.5,106C 393.634,99.9512 401.967,94.4512 410.5,89.5 Z"/></g>
<g><path style="opacity:1" fill="#611661" d="M 405.5,102.5 C 407.903,102.393 409.736,103.393 411,105.5C 411.772,109.298 412.272,113.131 412.5,117C 410.618,137.46 409.452,157.96 409,178.5C 409.26,182.708 407.76,186.041 404.5,188.5C 374.114,170.529 342.448,168.029 309.5,181C 281.195,196.353 265.028,220.186 261,252.5C 260.234,263.52 260.401,274.52 261.5,285.5C 261.303,291.54 258.303,294.04 252.5,293C 250.667,292.5 249.5,291.333 249,289.5C 249.519,276.523 249.519,263.523 249,250.5C 238.481,194.336 204.647,168.836 147.5,174C 133.412,176.05 120.412,180.883 108.5,188.5C 106.803,187.636 105.637,186.303 105,184.5C 103.853,162.507 102.686,140.507 101.5,118.5C 101.667,115.833 101.833,113.167 102,110.5C 102.563,104.654 105.396,103.154 110.5,106C 131.932,123.862 156.599,131.196 184.5,128C 200.817,125.558 217.151,123.225 233.5,121C 247.833,120.333 262.167,120.333 276.5,121C 297.229,124.613 318.062,127.446 339,129.5C 364.692,128.779 386.859,119.779 405.5,102.5 Z"/></g>
<g><path style="opacity:1" fill="#9b0d91" d="M 154.5,202.5 C 189.446,202.566 211.28,219.566 220,253.5C 224.021,280.808 214.854,302.308 192.5,318C 169.269,329.629 146.269,329.296 123.5,317C 109.906,303.233 103.572,286.567 104.5,267C 104.963,232.726 121.63,211.226 154.5,202.5 Z M 157.5,223.5 C 149.051,227.766 141.551,233.433 135,240.5C 121.595,257.342 121.262,274.342 134,291.5C 144.082,303.641 156.582,307.475 171.5,303C 200.085,288.019 205.918,266.852 189,239.5C 180.973,229.237 170.473,223.903 157.5,223.5 Z"/></g>
<g><path style="opacity:1" fill="#c108b1" d="M 48.5,214.5 C 49.339,215.641 50.0057,216.974 50.5,218.5C 43.5562,237.219 39.5562,256.552 38.5,276.5C 38.4009,293.048 44.0676,307.215 55.5,319C 54.2068,319.49 52.8734,319.657 51.5,319.5C 45.2987,320.715 40.1321,319.048 36,314.5C 31.9518,280.095 36.1185,246.762 48.5,214.5 Z"/></g>
<g><path style="opacity:1" fill="#c207b1" d="M 467.5,229.5 C 476.43,257.238 478.93,285.571 475,314.5C 470.868,319.048 465.701,320.715 459.5,319.5C 458.127,319.657 456.793,319.49 455.5,319C 464.83,310.174 470.33,299.341 472,286.5C 472.926,267.977 470.759,249.81 465.5,232C 465.667,230.833 465.833,229.667 466,228.5C 466.383,229.056 466.883,229.389 467.5,229.5 Z"/></g>
<g><path style="opacity:1" fill="#a40c99" d="M 152.5,206.5 C 188.41,205.906 209.91,223.239 217,258.5C 218.23,293.604 201.73,315.104 167.5,323C 143.486,326.334 125.319,317.834 113,297.5C 101.039,267.745 106.205,241.579 128.5,219C 136.145,213.966 144.145,209.799 152.5,206.5 Z M 157.5,223.5 C 149.051,227.766 141.551,233.433 135,240.5C 121.595,257.342 121.262,274.342 134,291.5C 144.082,303.641 156.582,307.475 171.5,303C 200.085,288.019 205.918,266.852 189,239.5C 180.973,229.237 170.473,223.903 157.5,223.5 Z"/></g>
<g><path style="opacity:0.999" fill="#ad0a9f" d="M 156.5,208.5 C 187.692,209.345 207.026,225.012 214.5,255.5C 216.474,294.694 197.974,316.694 159,321.5C 126.126,318.274 109.626,300.107 109.5,267C 109.997,244.684 119.663,227.35 138.5,215C 144.301,211.903 150.301,209.736 156.5,208.5 Z M 157.5,223.5 C 149.051,227.766 141.551,233.433 135,240.5C 121.595,257.342 121.262,274.342 134,291.5C 144.082,303.641 156.582,307.475 171.5,303C 200.085,288.019 205.918,266.852 189,239.5C 180.973,229.237 170.473,223.903 157.5,223.5 Z"/></g>
<g><path style="opacity:0.207" fill="#010000" d="M 154.5,213.5 C 184.887,213.471 203.054,228.471 209,258.5C 210.397,292.946 193.897,312.279 159.5,316.5C 130.728,312.32 115.728,295.653 114.5,266.5C 116.513,240.087 129.846,222.42 154.5,213.5 Z M 157.5,223.5 C 149.051,227.766 141.551,233.433 135,240.5C 121.595,257.342 121.262,274.342 134,291.5C 144.082,303.641 156.582,307.475 171.5,303C 200.085,288.019 205.918,266.852 189,239.5C 180.973,229.237 170.473,223.903 157.5,223.5 Z"/></g>
<g><path style="opacity:1" fill="#a30c98" d="M 368.5,211.5 C 379.575,214.476 388.409,220.81 395,230.5C 405.001,243.813 408.668,258.813 406,275.5C 400.613,312.869 379.113,329.035 341.5,324C 326.454,321.729 313.954,314.895 304,303.5C 302.437,298.147 300.104,293.147 297,288.5C 288.101,261.258 294.268,238.091 315.5,219C 330.938,206.031 348.271,202.698 367.5,209C 368.252,209.671 368.586,210.504 368.5,211.5 Z M 345.5,223.5 C 325.372,231.658 313.706,246.658 310.5,268.5C 312.679,280.016 318.346,289.516 327.5,297C 337.146,304.748 347.812,306.748 359.5,303C 382.648,292.864 390.815,275.698 384,251.5C 376.852,234.166 364.019,224.832 345.5,223.5 Z"/></g>
<g><path style="opacity:0.999" fill="#ad0a9f" d="M 368.5,211.5 C 400.129,229.868 409.962,256.535 398,291.5C 388.366,310.776 372.7,320.776 351,321.5C 321.418,319.582 303.084,304.249 296,275.5C 293.423,246.145 305.256,224.978 331.5,212C 343.777,207.503 356.11,207.337 368.5,211.5 Z M 345.5,223.5 C 325.372,231.658 313.706,246.658 310.5,268.5C 312.679,280.016 318.346,289.516 327.5,297C 337.146,304.748 347.812,306.748 359.5,303C 382.648,292.864 390.815,275.698 384,251.5C 376.852,234.166 364.019,224.832 345.5,223.5 Z"/></g>
<g><path style="opacity:0.208" fill="#000000" d="M 346.5,212.5 C 378.271,216.107 395.271,233.941 397.5,266C 395.107,296.227 378.774,312.727 348.5,315.5C 320.178,312.677 304.178,297.177 300.5,269C 302.277,238.755 317.611,219.922 346.5,212.5 Z M 345.5,223.5 C 325.372,231.658 313.706,246.658 310.5,268.5C 312.679,280.016 318.346,289.516 327.5,297C 337.146,304.748 347.812,306.748 359.5,303C 382.648,292.864 390.815,275.698 384,251.5C 376.852,234.166 364.019,224.832 345.5,223.5 Z"/></g>
<g><path style="opacity:1" fill="#881081" d="M 252.5,318.5 C 261.716,317.868 270.383,319.702 278.5,324C 280.991,327.49 283.825,330.657 287,333.5C 289.967,339.078 293.3,344.411 297,349.5C 303.357,355.357 309.191,361.69 314.5,368.5C 321.793,386.433 316.793,399.933 299.5,409C 294.372,411.093 289.038,412.426 283.5,413C 264.167,413.667 244.833,413.667 225.5,413C 204.259,409.781 194.092,397.614 195,376.5C 199.408,366.746 206.075,358.746 215,352.5C 221.362,343.092 228.196,334.092 235.5,325.5C 240.681,321.778 246.348,319.445 252.5,318.5 Z"/></g>
<g><path style="opacity:1" fill="#980e8f" d="M 304.5,371.5 C 300.491,375.543 296.491,379.543 292.5,383.5C 292.662,378.818 291.495,374.485 289,370.5C 284.416,363.668 280.083,356.668 276,349.5C 274.961,348.29 273.794,347.29 272.5,346.5C 274.002,344.825 275.335,342.992 276.5,341C 275.547,339.045 274.213,337.378 272.5,336C 262.167,335.333 251.833,335.333 241.5,336C 238.626,337.602 237.626,339.769 238.5,342.5C 237.504,342.414 236.671,342.748 236,343.5C 229.112,355.214 221.279,366.214 212.5,376.5C 211.061,374.64 209.395,372.973 207.5,371.5C 207.709,370.078 208.209,368.745 209,367.5C 218.556,359.621 226.223,350.287 232,339.5C 243.779,325.008 257.946,322.174 274.5,331C 281.435,338.6 287.602,346.766 293,355.5C 297.035,359.2 300.702,363.2 304,367.5C 304.49,368.793 304.657,370.127 304.5,371.5 Z"/></g>
<g><path style="opacity:1" fill="#d505c1" d="M 53.5,329.5 C 55.0331,334.908 56.8664,340.241 59,345.5C 63.0405,352.248 66.5405,359.248 69.5,366.5C 63.6374,371.074 58.4707,370.408 54,364.5C 48.8846,355.316 45.0513,345.65 42.5,335.5C 44.2347,330.136 47.9014,328.136 53.5,329.5 Z"/></g>
<g><path style="opacity:1" fill="#c707b5" d="M 53.5,329.5 C 56.1272,330.092 58.7938,330.425 61.5,330.5C 65.5613,334.265 68.3946,338.932 70,344.5C 74.5091,349.854 77.6758,355.854 79.5,362.5C 76.1711,363.831 72.8377,365.164 69.5,366.5C 66.5405,359.248 63.0405,352.248 59,345.5C 56.8664,340.241 55.0331,334.908 53.5,329.5 Z"/></g>
<g><path style="opacity:1" fill="#73136f" d="M 213.5,324.5 C 216.261,323.915 217.927,324.915 218.5,327.5C 216.517,334.977 213.017,341.644 208,347.5C 200.214,354.28 193.547,361.947 188,370.5C 183.403,391.142 190.57,406.309 209.5,416C 218.261,418.845 227.261,420.345 236.5,420.5C 253.825,419.771 271.158,419.271 288.5,419C 306.174,416.975 318.341,407.809 325,391.5C 327.221,383.713 326.888,376.046 324,368.5C 318.382,360.547 312.382,352.88 306,345.5C 303.195,341.909 302.195,337.909 303,333.5C 304.231,332.892 305.564,332.559 307,332.5C 314.276,334.258 321.443,336.425 328.5,339C 338.558,340.34 348.558,342.007 358.5,344C 364.307,345.807 368.141,349.64 370,355.5C 374.09,368.925 381.423,380.258 392,389.5C 401.401,405.297 397.568,416.797 380.5,424C 372.539,425.219 364.539,426.219 356.5,427C 339.238,431.865 322.238,437.532 305.5,444C 273.833,452.667 242.167,452.667 210.5,444C 196.424,439.197 182.424,434.197 168.5,429C 154.889,426.229 141.222,423.896 127.5,422C 114.402,414.648 110.902,404.148 117,390.5C 121.911,384.345 126.577,378.011 131,371.5C 134.528,363.916 137.861,356.249 141,348.5C 144.155,345.333 147.988,343.499 152.5,343C 162.885,341.624 173.218,339.957 183.5,338C 193.476,333.186 203.476,328.686 213.5,324.5 Z"/></g>
<g><path style="opacity:1" fill="#c607b4" d="M 460.5,329.5 C 459.602,330.158 458.602,330.824 457.5,331.5C 452.406,343.349 447.073,355.016 441.5,366.5C 437.605,365.538 433.939,364.204 430.5,362.5C 430.755,359.984 431.589,357.65 433,355.5C 438.692,347.441 443.858,339.108 448.5,330.5C 452.466,329.838 456.466,329.505 460.5,329.5 Z"/></g>
<g><path style="opacity:1" fill="#d405c0" d="M 460.5,329.5 C 464.798,329.63 467.465,331.796 468.5,336C 465.089,345.658 461.256,355.158 457,364.5C 452.408,369.125 447.242,369.791 441.5,366.5C 447.073,355.016 452.406,343.349 457.5,331.5C 458.602,330.824 459.602,330.158 460.5,329.5 Z"/></g>
<g><path style="opacity:1" fill="#b10aa3" d="M 61.5,330.5 C 71.2963,332.327 81.1296,333.994 91,335.5C 93.502,335.662 95.6687,334.995 97.5,333.5C 98.1174,333.389 98.6174,333.056 99,332.5C 103.815,338.463 107.315,345.129 109.5,352.5C 99.5628,356.035 89.5628,359.368 79.5,362.5C 77.6758,355.854 74.5091,349.854 70,344.5C 68.3946,338.932 65.5613,334.265 61.5,330.5 Z"/></g>
<g><path style="opacity:1" fill="#b20aa4" d="M 448.5,330.5 C 443.858,339.108 438.692,347.441 433,355.5C 431.589,357.65 430.755,359.984 430.5,362.5C 419.713,359.471 409.046,356.138 398.5,352.5C 401.126,345.914 404.293,339.581 408,333.5C 409.356,332.62 410.856,332.286 412.5,332.5C 413.874,334.959 416.04,335.959 419,335.5C 428.885,334.022 438.718,332.356 448.5,330.5 Z"/></g>
<g><path style="opacity:0.37" fill="#010001" d="M 272.5,346.5 C 260.83,353.272 258.33,362.605 265,374.5C 272.04,384.629 281.207,387.629 292.5,383.5C 296.491,379.543 300.491,375.543 304.5,371.5C 307.238,370.965 309.072,371.965 310,374.5C 310.135,376.922 309.635,379.255 308.5,381.5C 304.207,389.131 297.873,394.131 289.5,396.5C 283.538,396.759 277.871,395.593 272.5,393C 266.701,389.684 261.368,385.851 256.5,381.5C 250.352,386.743 243.685,391.243 236.5,395C 231.58,396.25 226.58,396.75 221.5,396.5C 215.203,394.343 209.87,390.676 205.5,385.5C 204.221,382.605 203.221,379.605 202.5,376.5C 202.511,373.155 204.178,371.489 207.5,371.5C 209.395,372.973 211.061,374.64 212.5,376.5C 215.162,382.504 219.829,385.504 226.5,385.5C 244.642,383.529 252.475,373.529 250,355.5C 248.668,353.34 247.168,351.34 245.5,349.5C 242.861,347.527 240.527,345.194 238.5,342.5C 237.626,339.769 238.626,337.602 241.5,336C 251.833,335.333 262.167,335.333 272.5,336C 274.213,337.378 275.547,339.045 276.5,341C 275.335,342.992 274.002,344.825 272.5,346.5 Z"/></g>
<g><path style="opacity:1" fill="#6d146b" d="M 196.5,338.5 C 198.199,338.34 199.866,338.506 201.5,339C 202.517,340.049 202.684,341.216 202,342.5C 196.333,350.167 190.667,357.833 185,365.5C 177.868,383.81 181.702,399.643 196.5,413C 203.556,418.526 211.556,421.859 220.5,423C 242.187,423.019 263.854,423.019 285.5,423C 313.045,421.285 328.379,406.785 331.5,379.5C 331.602,375.307 330.769,371.307 329,367.5C 324.717,360.892 320.883,354.059 317.5,347C 317.645,346.228 317.978,345.561 318.5,345C 328.866,344.274 339.199,344.608 349.5,346C 355.327,347.162 360.16,349.996 364,354.5C 369.076,369.906 377.743,382.906 390,393.5C 396.527,406.909 392.693,416.075 378.5,421C 367.698,421.805 357.032,423.472 346.5,426C 329.637,432.066 312.637,437.732 295.5,443C 270.498,449 245.498,449 220.5,443C 203.632,437.933 186.965,432.266 170.5,426C 157.273,422.915 143.94,420.582 130.5,419C 118.225,413.389 115.058,404.555 121,392.5C 131.122,381.023 138.788,368.023 144,353.5C 147.453,349.855 151.62,347.355 156.5,346C 165.826,344.956 175.16,343.956 184.5,343C 188.715,341.766 192.715,340.266 196.5,338.5 Z"/></g>
<g><path style="opacity:1" fill="#a70c9b" d="M 238.5,342.5 C 240.527,345.194 242.861,347.527 245.5,349.5C 243.856,349.286 242.356,349.62 241,350.5C 235.165,359.01 230.165,368.01 226,377.5C 225.278,380.261 225.445,382.927 226.5,385.5C 219.829,385.504 215.162,382.504 212.5,376.5C 221.279,366.214 229.112,355.214 236,343.5C 236.671,342.748 237.504,342.414 238.5,342.5 Z"/></g>
<g><path style="opacity:1" fill="#661565" d="M 159.5,350.5 C 164.179,350.334 168.845,350.501 173.5,351C 179.057,352.504 180.89,356.004 179,361.5C 172.431,377.448 173.764,392.782 183,407.5C 187.31,413.311 191.81,418.977 196.5,424.5C 194.235,425.647 191.902,425.814 189.5,425C 172.455,420.324 155.122,417.324 137.5,416C 125.325,413.55 121.491,406.717 126,395.5C 130.333,390.167 134.667,384.833 139,379.5C 142.939,371.955 146.606,364.288 150,356.5C 152.843,353.837 156.009,351.837 159.5,350.5 Z"/></g>
<g><path style="opacity:1" fill="#671566" d="M 338.5,351.5 C 347.613,350.141 354.779,353.141 360,360.5C 362.383,367.999 365.716,374.999 370,381.5C 376.408,387.238 382.075,393.571 387,400.5C 388.227,406.877 386.061,411.71 380.5,415C 370.617,417.19 360.617,418.857 350.5,420C 330.532,424.989 310.865,430.989 291.5,438C 268.385,444.279 245.385,443.946 222.5,437C 218.717,435.942 215.383,434.109 212.5,431.5C 213.376,430.749 214.376,430.249 215.5,430C 225.836,429.375 236.169,428.708 246.5,428C 262.835,427.923 279.168,427.923 295.5,428C 318.13,423.705 331.964,410.205 337,387.5C 338.364,377.672 337.197,368.172 333.5,359C 333.831,355.52 335.498,353.02 338.5,351.5 Z"/></g>
<g><path style="opacity:1" fill="#b609a7" d="M 272.5,346.5 C 273.794,347.29 274.961,348.29 276,349.5C 280.083,356.668 284.416,363.668 289,370.5C 291.495,374.485 292.662,378.818 292.5,383.5C 281.207,387.629 272.04,384.629 265,374.5C 258.33,362.605 260.83,353.272 272.5,346.5 Z"/></g>
<g><path style="opacity:1" fill="#ba09ab" d="M 245.5,349.5 C 247.168,351.34 248.668,353.34 250,355.5C 252.475,373.529 244.642,383.529 226.5,385.5C 225.445,382.927 225.278,380.261 226,377.5C 230.165,368.01 235.165,359.01 241,350.5C 242.356,349.62 243.856,349.286 245.5,349.5 Z"/></g>
<g><path style="opacity:1" fill="#ae0ba0" d="M 97.5,366.5 C 98.0431,366.56 98.3764,366.893 98.5,367.5C 90.8709,376.467 88.3709,386.8 91,398.5C 93.5266,411.88 98.5266,424.213 106,435.5C 110.069,440.285 115.236,443.119 121.5,444C 134.561,444.065 147.561,444.898 160.5,446.5C 179.639,454.491 199.305,460.991 219.5,466C 246.665,472.069 273.665,471.736 300.5,465C 319.322,459.392 337.988,453.392 356.5,447C 366.458,445.835 376.458,445.168 386.5,445C 389.974,444.699 393.308,443.866 396.5,442.5C 400.16,439.009 403.994,435.676 408,432.5C 412.933,422.455 416.767,411.955 419.5,401C 422.596,388.623 419.93,377.79 411.5,368.5C 411.957,367.702 412.624,367.369 413.5,367.5C 419.166,368.39 424.5,370.057 429.5,372.5C 429.33,384.07 427.996,395.737 425.5,407.5C 425.52,408.726 425.853,409.726 426.5,410.5C 423.192,413.775 420.358,417.442 418,421.5C 416.801,424.726 416.301,428.059 416.5,431.5C 413.874,438.892 409.208,444.726 402.5,449C 395.142,450.845 387.809,452.012 380.5,452.5C 373.136,447.254 365.802,447.254 358.5,452.5C 356.712,451.378 354.712,451.211 352.5,452C 335.5,458.667 318.166,464.333 300.5,469C 266.498,476.036 232.831,474.703 199.5,465C 185.47,459.733 171.303,454.9 157,450.5C 155.93,450.528 155.097,450.861 154.5,451.5C 151.463,449.595 148.13,448.262 144.5,447.5C 141.045,448.196 137.712,449.196 134.5,450.5C 128.334,449.524 122,448.691 115.5,448C 112.382,446.941 109.382,445.608 106.5,444C 103.024,439.521 99.6905,435.021 96.5,430.5C 96.2935,425.307 94.2935,420.973 90.5,417.5C 91.0431,417.44 91.3764,417.107 91.5,416.5C 85.4369,401.417 83.4369,386.084 85.5,370.5C 89.215,368.595 93.215,367.262 97.5,366.5 Z"/></g>
<g><path style="opacity:1" fill="#c707b5" d="M 85.5,370.5 C 83.4369,386.084 85.4369,401.417 91.5,416.5C 91.3764,417.107 91.0431,417.44 90.5,417.5C 85.909,411.404 80.7423,405.738 75,400.5C 70.6716,395.179 66.8382,389.512 63.5,383.5C 64.0049,380.812 65.3382,378.645 67.5,377C 73.1921,373.936 79.1921,371.77 85.5,370.5 Z"/></g>
<g><path style="opacity:1" fill="#c707b6" d="M 429.5,372.5 C 434.702,373.289 439.702,374.789 444.5,377C 445.966,378.552 446.966,380.386 447.5,382.5C 441.983,393.007 434.983,402.341 426.5,410.5C 425.853,409.726 425.52,408.726 425.5,407.5C 427.996,395.737 429.33,384.07 429.5,372.5 Z"/></g>
<g><path style="opacity:1" fill="#c707b5" d="M 416.5,431.5 C 417.825,436.48 419.159,441.48 420.5,446.5C 418.114,450.397 415.114,453.897 411.5,457C 407.045,458.971 402.712,460.805 398.5,462.5C 392.5,459.167 386.5,455.833 380.5,452.5C 387.809,452.012 395.142,450.845 402.5,449C 409.208,444.726 413.874,438.892 416.5,431.5 Z"/></g>
<g><path style="opacity:1" fill="#ca07b7" d="M 96.5,430.5 C 99.6905,435.021 103.024,439.521 106.5,444C 109.382,445.608 112.382,446.941 115.5,448C 122,448.691 128.334,449.524 134.5,450.5C 124.3,456.433 113.967,462.1 103.5,467.5C 101.149,465.468 98.4828,463.635 95.5,462C 92.9334,459.604 90.6,457.104 88.5,454.5C 90.5985,446.204 93.2652,438.204 96.5,430.5 Z"/></g>
<g><path style="opacity:1" fill="#970e8e" d="M 389.5,359.5 C 393.647,360.66 397.647,361.993 401.5,363.5C 400.448,363.351 399.448,363.517 398.5,364C 416.017,378.568 420.184,396.401 411,417.5C 406.816,430.69 397.982,438.523 384.5,441C 372.328,440.875 360.328,442.208 348.5,445C 330.355,452.604 311.689,458.604 292.5,463C 267.767,467.852 243.1,467.519 218.5,462C 211.108,460.738 204.108,458.405 197.5,455C 191.195,453.56 184.862,452.227 178.5,451C 172.542,447.9 166.208,445.567 159.5,444C 147.187,442.885 134.854,441.885 122.5,441C 116.286,440.021 111.119,437.188 107,432.5C 100.078,421.822 95.7444,410.155 94,397.5C 92.982,388.603 94.6487,380.27 99,372.5C 102.903,370.836 104.403,368.169 103.5,364.5C 107.595,362.721 111.928,361.388 116.5,360.5C 117.497,360.47 118.164,360.97 118.5,362C 118.138,363.225 117.638,364.391 117,365.5C 112.424,370.987 108.091,376.653 104,382.5C 99.4386,392.815 99.4386,403.148 104,413.5C 107.953,424.454 115.453,431.621 126.5,435C 138.583,435.736 150.583,437.07 162.5,439C 180.216,445.794 198.216,451.794 216.5,457C 235.624,461.19 254.957,462.524 274.5,461C 299.515,457.995 323.515,451.328 346.5,441C 358.662,438.188 370.996,436.521 383.5,436C 387.928,435.303 391.928,433.637 395.5,431C 409.993,417.197 413.493,401.03 406,382.5C 399.958,376.127 394.292,369.46 389,362.5C 388.26,361.251 388.427,360.251 389.5,359.5 Z"/></g>
<g><path style="opacity:1" fill="#dd04c7" d="M 420.5,446.5 C 423.442,454.596 424.609,462.93 424,471.5C 422.846,472.743 421.512,473.743 420,474.5C 412.689,470.672 405.522,466.672 398.5,462.5C 402.712,460.805 407.045,458.971 411.5,457C 415.114,453.897 418.114,450.397 420.5,446.5 Z"/></g>
<g><path style="opacity:1" fill="#a30c98" d="M 401.5,363.5 C 405.784,364.261 409.784,365.595 413.5,367.5C 412.624,367.369 411.957,367.702 411.5,368.5C 419.93,377.79 422.596,388.623 419.5,401C 416.767,411.955 412.933,422.455 408,432.5C 403.994,435.676 400.16,439.009 396.5,442.5C 393.308,443.866 389.974,444.699 386.5,445C 376.458,445.168 366.458,445.835 356.5,447C 337.988,453.392 319.322,459.392 300.5,465C 273.665,471.736 246.665,472.069 219.5,466C 199.305,460.991 179.639,454.491 160.5,446.5C 147.561,444.898 134.561,444.065 121.5,444C 115.236,443.119 110.069,440.285 106,435.5C 98.5266,424.213 93.5266,411.88 91,398.5C 88.3709,386.8 90.8709,376.467 98.5,367.5C 98.3764,366.893 98.0431,366.56 97.5,366.5C 99.2143,365.262 101.214,364.595 103.5,364.5C 104.403,368.169 102.903,370.836 99,372.5C 94.6487,380.27 92.982,388.603 94,397.5C 95.7444,410.155 100.078,421.822 107,432.5C 111.119,437.188 116.286,440.021 122.5,441C 134.854,441.885 147.187,442.885 159.5,444C 166.208,445.567 172.542,447.9 178.5,451C 184.862,452.227 191.195,453.56 197.5,455C 204.108,458.405 211.108,460.738 218.5,462C 243.1,467.519 267.767,467.852 292.5,463C 311.689,458.604 330.355,452.604 348.5,445C 360.328,442.208 372.328,440.875 384.5,441C 397.982,438.523 406.816,430.69 411,417.5C 420.184,396.401 416.017,378.568 398.5,364C 399.448,363.517 400.448,363.351 401.5,363.5 Z"/></g>
<g><path style="opacity:1" fill="#a30c98" d="M 289.5,396.5 C 290.239,396.369 290.906,396.536 291.5,397C 288.637,398.399 285.637,399.399 282.5,400C 266.202,401.555 249.869,401.888 233.5,401C 228.6,400.478 223.934,399.145 219.5,397C 220.094,396.536 220.761,396.369 221.5,396.5C 226.58,396.75 231.58,396.25 236.5,395C 243.685,391.243 250.352,386.743 256.5,381.5C 261.368,385.851 266.701,389.684 272.5,393C 277.871,395.593 283.538,396.759 289.5,396.5 Z"/></g>
<g><path style="opacity:1" fill="#950e8c" d="M 308.5,381.5 C 309.588,391.647 305.255,398.814 295.5,403C 291.58,404.313 287.58,405.313 283.5,406C 269.158,406.297 254.825,406.797 240.5,407.5C 231.102,407.535 222.102,405.702 213.5,402C 207.327,397.835 204.16,392.001 204,384.5C 204.383,385.056 204.883,385.389 205.5,385.5C 209.87,390.676 215.203,394.343 221.5,396.5C 220.761,396.369 220.094,396.536 219.5,397C 223.934,399.145 228.6,400.478 233.5,401C 249.869,401.888 266.202,401.555 282.5,400C 285.637,399.399 288.637,398.399 291.5,397C 290.906,396.536 290.239,396.369 289.5,396.5C 297.873,394.131 304.207,389.131 308.5,381.5 Z"/></g>
<g><path style="opacity:0.999" fill="#e702d0" d="M 88.5,454.5 C 90.6,457.104 92.9334,459.604 95.5,462C 98.4828,463.635 101.149,465.468 103.5,467.5C 99.8992,469.977 96.2326,472.477 92.5,475C 87.6594,477.8 84.9927,476.466 84.5,471C 85.6474,465.424 86.9807,459.924 88.5,454.5 Z"/></g>
<g><path style="opacity:1" fill="#bb08ab" d="M 154.5,451.5 C 155.097,450.861 155.93,450.528 157,450.5C 171.303,454.9 185.47,459.733 199.5,465C 232.831,474.703 266.498,476.036 300.5,469C 318.166,464.333 335.5,458.667 352.5,452C 354.712,451.211 356.712,451.378 358.5,452.5C 290.325,488.73 222.325,488.397 154.5,451.5 Z"/></g>
</svg>
