<?xml version="1.0" encoding="UTF-8"?>
<!DOCTYPE svg PUBLIC "-//W3C//DTD SVG 1.1//EN" "http://www.w3.org/Graphics/SVG/1.1/DTD/svg11.dtd">
<svg xmlns="http://www.w3.org/2000/svg" version="1.1" width="512px" height="512px" style="shape-rendering:geometricPrecision; text-rendering:geometricPrecision; image-rendering:optimizeQuality; fill-rule:evenodd; clip-rule:evenodd" xmlns:xlink="http://www.w3.org/1999/xlink">
<g><path style="opacity:0.994" fill="#000001" d="M 74.5,34.5 C 82.0604,35.2733 89.0604,37.7733 95.5,42C 117.167,57 138.833,72 160.5,87C 163.053,87.7611 165.553,88.5944 168,89.5C 209.738,77.6013 252.238,74.1013 295.5,79C 310.849,82.4364 326.182,85.9364 341.5,89.5C 346.205,89.0738 350.538,87.5738 354.5,85C 369.01,74.9117 383.343,64.5784 397.5,54C 407.169,47.4969 417.169,41.4969 427.5,36C 440.508,32.6404 449.008,37.4738 453,50.5C 457.074,93.9656 455.907,137.299 449.5,180.5C 452.495,190.16 456.329,199.494 461,208.5C 474.47,241.983 479.47,276.65 476,312.5C 474.5,315.333 472.333,317.5 469.5,319C 455.819,320.891 442.152,322.891 428.5,325C 423.712,325.724 419.045,326.89 414.5,328.5C 412.63,333.082 414.13,335.415 419,335.5C 431.974,333.282 444.974,331.282 458,329.5C 464.923,328.763 468.256,331.763 468,338.5C 464.885,347.398 461.218,356.064 457,364.5C 452.853,368.831 448.02,369.664 442.5,367C 429.396,362.946 416.396,358.613 403.5,354C 397.944,352.36 392.278,351.527 386.5,351.5C 386.244,353.792 386.577,355.959 387.5,358C 405.966,364.617 424.632,370.617 443.5,376C 445.662,377.645 446.995,379.812 447.5,382.5C 441.03,394.427 432.863,405.094 423,414.5C 418.118,419.584 416.118,425.584 417,432.5C 421.423,445.178 423.757,458.178 424,471.5C 422.846,472.743 421.512,473.743 420,474.5C 409.419,468.793 398.919,462.96 388.5,457C 382.262,453.462 375.762,450.629 369,448.5C 356.862,453.947 344.696,459.447 332.5,465C 285.868,483.062 238.868,484.062 191.5,468C 175.34,462.252 159.674,455.419 144.5,447.5C 125.67,454.914 108.003,464.414 91.5,476C 84.9986,476.812 82.8319,473.979 85,467.5C 88.0322,454.405 91.8655,441.572 96.5,429C 95.7142,426.04 94.5475,423.206 93,420.5C 81.8359,409.176 72.0026,396.842 63.5,383.5C 65.0106,378.491 68.344,375.324 73.5,374C 89.286,368.936 104.953,363.603 120.5,358C 122.572,353.917 121.405,351.75 117,351.5C 98.724,355.925 80.8907,361.759 63.5,369C 59.4469,369.559 56.2802,368.059 54,364.5C 49.2247,356.285 45.558,347.618 43,338.5C 42.7439,331.763 46.0772,328.763 53,329.5C 66.0578,331.111 79.0578,333.111 92,335.5C 95.7394,335.095 97.0727,333.095 96,329.5C 93.1488,327.655 89.9822,326.489 86.5,326C 70.8143,323.219 55.1476,320.553 39.5,318C 36.732,316.238 35.232,313.738 35,310.5C 31.2118,265.995 40.2118,224.329 62,185.5C 62.3729,183.302 62.8729,181.135 63.5,179C 58.6072,138.326 56.7739,97.4928 58,56.5C 59.5819,46.1022 65.0819,38.7688 74.5,34.5 Z M 154.5,213.5 C 175.419,212.209 191.253,220.543 202,238.5C 214.364,262.144 211.531,283.644 193.5,303C 171.427,319.75 149.594,319.584 128,302.5C 108.699,275.268 110.532,249.434 133.5,225C 139.719,219.586 146.719,215.752 154.5,213.5 Z M 341.5,213.5 C 362.666,211.52 378.833,219.52 390,237.5C 400.549,257.587 399.882,277.254 388,296.5C 367.938,317.851 345.438,321.018 320.5,306C 303.474,292.758 297.474,275.592 302.5,254.5C 308.418,233.919 321.418,220.253 341.5,213.5 Z M 254.5,335.5 C 260.176,335.334 265.843,335.501 271.5,336C 275.104,337.334 276.271,339.834 275,343.5C 271.965,346.87 268.632,349.87 265,352.5C 258.853,366.042 262.353,376.542 275.5,384C 282.005,386.263 288.338,385.929 294.5,383C 296.926,379.484 299.593,376.151 302.5,373C 306.359,370.621 309.025,371.621 310.5,376C 302.428,394.708 289.095,400.041 270.5,392C 266.275,388.104 261.775,384.604 257,381.5C 252.177,384.985 247.344,388.485 242.5,392C 223.657,401.3 210.324,396.3 202.5,377C 202.833,373.26 204.833,371.927 208.5,373C 211.833,377.667 215.833,381.667 220.5,385C 239.498,386.999 249.665,378.499 251,359.5C 249.631,353.429 246.298,348.763 241,345.5C 237.497,342.375 237.664,339.541 241.5,337C 246.019,336.825 250.353,336.325 254.5,335.5 Z"/></g>
</svg>
